<svg width="24" height="24" viewBox="0 0 24 24" fill="none" xmlns="http://www.w3.org/2000/svg">
<path fill-rule="evenodd" clip-rule="evenodd" d="M18.3699 5.82358H18.8999C20.2599 5.82358 21.2199 7.16358 20.7899 8.45358L19.0099 13.8236L20.7899 19.1936C21.2199 20.4836 20.2499 21.8236 18.8899 21.8236H5.10993C3.74993 21.8236 2.77993 20.4836 3.21993 19.1936L5.00993 13.8236L3.20993 8.45358C2.77993 7.16358 3.73993 5.82358 5.10993 5.82358H15.6999L16.7199 3.00358C16.9599 2.35358 17.6799 2.01358 18.3299 2.25358C18.9799 2.48358 19.3199 3.20358 19.0799 3.85358L18.3699 5.82358ZM13.0099 14.8236H15.0099C15.5599 14.8236 16.0099 14.3736 16.0099 13.8236C16.0099 13.2736 15.5599 12.8236 15.0099 12.8236H13.0099V10.8236C13.0099 10.2736 12.5599 9.82358 12.0099 9.82358C11.4599 9.82358 11.0099 10.2736 11.0099 10.8236V12.8236H9.00993C8.45993 12.8236 8.00993 13.2736 8.00993 13.8236C8.00993 14.3736 8.45993 14.8236 9.00993 14.8236H11.0099V16.8236C11.0099 17.3736 11.4599 17.8236 12.0099 17.8236C12.5599 17.8236 13.0099 17.3736 13.0099 16.8236V14.8236Z" fill="#0F3C97"/>
</svg>
